<svg width="50" height="50" viewBox="0 0 50 50" fill="none" xmlns="http://www.w3.org/2000/svg">
<rect x="0.5" y="0.5" width="48.8436" height="49" rx="5.5" stroke="black" stroke-linejoin="round"/>
<path d="M22.6792 40C23.9178 40 24.9218 38.9926 24.9218 37.75C24.9218 36.5074 23.9178 35.5 22.6792 35.5C21.4406 35.5 20.4365 36.5074 20.4365 37.75C20.4365 38.9926 21.4406 40 22.6792 40Z" fill="#232323"/>
<path d="M33.145 40C34.3835 40 35.3876 38.9926 35.3876 37.75C35.3876 36.5074 34.3835 35.5 33.145 35.5C31.9064 35.5 30.9023 36.5074 30.9023 37.75C30.9023 38.9926 31.9064 40 33.145 40Z" fill="#232323"/>
<path d="M6.98047 13H13.7832L19.3338 30.6322H35.9483L42.8632 13" stroke="#232323" stroke-width="1.2" stroke-linecap="round" stroke-linejoin="round"/>
<rect x="19.6889" y="4" width="17.3977" height="17.4545" rx="8.69885" fill="#FF5C00"/>
<path d="M28.3436 9.86569C28.5794 9.86742 28.8119 9.91046 29.0409 9.99483C29.2699 10.0792 29.4765 10.2169 29.6607 10.408C29.8467 10.5992 29.9947 10.8574 30.1049 11.1828C30.2168 11.5065 30.2737 11.9094 30.2754 12.3915C30.2754 12.8547 30.2289 13.267 30.1359 13.6286C30.0429 13.9885 29.9095 14.2923 29.7356 14.5403C29.5634 14.7882 29.3542 14.9767 29.108 15.1059C28.8618 15.235 28.5846 15.2996 28.2764 15.2996C27.9613 15.2996 27.6815 15.2376 27.4371 15.1136C27.1926 14.9897 26.9937 14.8183 26.8405 14.5997C26.6872 14.3793 26.5917 14.1262 26.5538 13.8404H27.3415C27.3931 14.0677 27.4982 14.2519 27.6566 14.3931C27.8167 14.5325 28.0233 14.6023 28.2764 14.6023C28.6638 14.6023 28.966 14.4335 29.1829 14.0961C29.3999 13.7569 29.5092 13.2834 29.5109 12.6756H29.4696C29.3801 12.8237 29.2681 12.9511 29.1338 13.0578C29.0013 13.1646 28.8523 13.2472 28.6871 13.3058C28.5218 13.3643 28.3453 13.3936 28.1576 13.3936C27.8529 13.3936 27.5757 13.3187 27.326 13.1689C27.0763 13.0191 26.8775 12.8134 26.7294 12.5516C26.5813 12.2899 26.5073 11.9912 26.5073 11.6555C26.5073 11.3214 26.5831 11.0184 26.7346 10.7464C26.8878 10.4743 27.1013 10.2591 27.3751 10.1007C27.6505 9.94059 27.9734 9.86225 28.3436 9.86569ZM28.3461 10.5372C28.1447 10.5372 27.963 10.5871 27.8012 10.687C27.6411 10.7851 27.5145 10.9186 27.4216 11.0873C27.3286 11.2543 27.2821 11.4402 27.2821 11.6451C27.2821 11.85 27.3269 12.036 27.4164 12.203C27.5076 12.3683 27.6316 12.5 27.7883 12.5981C27.9467 12.6946 28.1275 12.7428 28.3306 12.7428C28.4822 12.7428 28.6233 12.7135 28.7542 12.655C28.8851 12.5964 28.9996 12.5155 29.0977 12.4122C29.1958 12.3072 29.2725 12.1884 29.3275 12.0558C29.3826 11.9232 29.4102 11.7837 29.4102 11.6374C29.4102 11.4428 29.3637 11.262 29.2707 11.095C29.1795 10.928 29.0538 10.7937 28.8937 10.6921C28.7335 10.5888 28.551 10.5372 28.3461 10.5372Z" fill="white"/>
</svg>
