<svg width="53" height="52" viewBox="0 0 53 52" fill="none" xmlns="http://www.w3.org/2000/svg">
<path d="M7.83051 1.00006C4.5168 1.00006 1.83051 3.68635 1.83051 7.00006V45.0001C1.83051 48.3138 4.5168 51.0001 7.83051 51.0001H45.6742C48.9879 51.0001 51.6742 48.3138 51.6742 45.0001V7.00006C51.6742 3.68635 48.9879 1.00006 45.6741 1.00006H7.83051Z" fill="white"/>
<path d="M7.83051 1.00006C4.5168 1.00006 1.83051 3.68635 1.83051 7.00006V45.0001C1.83051 48.3138 4.5168 51.0001 7.83051 51.0001H45.6742C48.9879 51.0001 51.6742 48.3138 51.6742 45.0001V7.00006C51.6742 3.68635 48.9879 1.00006 45.6741 1.00006H7.83051Z" stroke="white" stroke-width="2" stroke-linejoin="round"/>
<path d="M26.2523 38.7501C26.2523 39.7181 25.4706 40.5001 24.5097 40.5001C23.5488 40.5001 22.767 39.7181 22.767 38.7501C22.767 37.782 23.5488 37.0001 24.5097 37.0001C25.4706 37.0001 26.2523 37.782 26.2523 38.7501Z" fill="white" stroke="#FF5C00"/>
<path d="M36.7181 38.7501C36.7181 39.7181 35.9364 40.5001 34.9755 40.5001C34.0145 40.5001 33.2328 39.7181 33.2328 38.7501C33.2328 37.782 34.0145 37.0001 34.9755 37.0001C35.9364 37.0001 36.7181 37.782 36.7181 38.7501Z" fill="white" stroke="#FF5C00"/>
<path d="M8.81097 14.0001H15.6137L21.1644 31.6323H37.7788L44.6937 14.0001" stroke="#FF5C00" stroke-width="1.2" stroke-linecap="round" stroke-linejoin="round"/>
</svg>
