<svg width="24" height="24" viewBox="0 0 24 24" fill="none" xmlns="http://www.w3.org/2000/svg">
<g clip-path="url(#clip0_52_1831)">
<path d="M23.4878 11.8564C23.4884 13.8728 22.9574 15.8418 21.9477 17.5772L23.5844 23.5067L17.4689 21.9156C15.7774 22.8293 13.8823 23.308 11.9564 23.3082H11.9513C5.59369 23.3082 0.418411 18.1749 0.415693 11.8654C0.414474 8.80798 1.61335 5.93301 3.79154 3.77003C5.96935 1.60724 8.86576 0.415519 11.9518 0.414124C18.3102 0.414124 23.4851 5.54715 23.4878 11.8564" fill="url(#paint0_linear_52_1831)"/>
<path d="M23.8997 11.8527C23.9003 13.9417 23.3503 15.981 22.3046 17.7786L24 23.9207L17.6652 22.2726C15.9198 23.2168 13.9546 23.7147 11.9549 23.7154H11.9498C5.364 23.7154 0.00281334 18.3975 0 11.8621C-0.00112534 8.69488 1.24088 5.71656 3.49688 3.47609C5.75316 1.23591 8.75316 0.00130233 11.9498 0C18.5366 0 23.8971 5.31721 23.8997 11.8527ZM20.1271 17.469L20.3636 17.0965C21.3579 15.5277 21.8828 13.7149 21.882 11.8534C21.8799 6.4213 17.4246 2.00186 11.946 2.00186C9.29287 2.00298 6.7995 3.02921 4.92413 4.89116C3.04884 6.7533 2.01694 9.22865 2.01759 11.8614C2.02003 17.2935 6.4755 21.7135 11.9498 21.7135H11.9537C13.7362 21.7126 15.4843 21.2376 17.0089 20.34L17.3717 20.1265L21.1309 21.1045L20.1271 17.469Z" fill="url(#paint1_linear_52_1831)"/>
<path d="M14.9364 6.89746C15.1601 6.40416 15.3955 6.39421 15.6082 6.38556C15.7824 6.37811 15.9816 6.37867 16.1805 6.37867C16.3796 6.37867 16.7032 6.453 16.9766 6.74928C17.2504 7.04583 18.0217 7.76249 18.0217 9.22007C18.0217 10.6776 16.9518 12.0864 16.8026 12.2843C16.6533 12.4817 14.737 15.5686 11.7022 16.7562C9.1799 17.743 8.66662 17.5468 8.11921 17.4973C7.57171 17.448 6.35259 16.7808 6.10387 16.089C5.85496 15.3973 5.85496 14.8043 5.92959 14.6804C6.00421 14.557 6.20334 14.4829 6.50193 14.3348C6.80053 14.1867 8.26856 13.4698 8.54221 13.371C8.81596 13.2722 9.01499 13.2229 9.21412 13.5195C9.41324 13.8157 9.98503 14.4829 10.1593 14.6804C10.3334 14.8785 10.5077 14.9031 10.8062 14.755C11.105 14.6063 12.0666 14.2938 13.2074 13.2846C14.095 12.4993 14.6943 11.5296 14.8685 11.2329C15.0427 10.9367 14.8871 10.7762 14.7374 10.6285C14.6032 10.4958 14.4387 10.2826 14.2893 10.1096C14.1404 9.93663 14.0907 9.81318 13.9911 9.6156C13.8915 9.41783 13.9414 9.24481 14.0159 9.09663C14.0907 8.94844 14.6709 7.48323 14.9364 6.89746Z" fill="white"/>
</g>
<defs>
<linearGradient id="paint0_linear_52_1831" x1="-1134.85" y1="2309.67" x2="-1134.85" y2="0.414124" gradientUnits="userSpaceOnUse">
<stop stop-color="#1FAF38"/>
<stop offset="1" stop-color="#60D669"/>
</linearGradient>
<linearGradient id="paint1_linear_52_1831" x1="-1176" y1="2392.07" x2="-1176" y2="0" gradientUnits="userSpaceOnUse">
<stop stop-color="#F9F9F9"/>
<stop offset="1" stop-color="white"/>
</linearGradient>
<clipPath id="clip0_52_1831">
<rect width="24" height="24" fill="white" transform="matrix(-1 0 0 1 24 0)"/>
</clipPath>
</defs>
</svg>
