<svg width="30" height="24" viewBox="0 0 30 24" fill="none" xmlns="http://www.w3.org/2000/svg">
<path d="M2 9.75H5.25V18.25H3C2.80109 18.25 2.61032 18.329 2.46967 18.4697C2.32902 18.6103 2.25 18.8011 2.25 19C2.25 19.1989 2.32902 19.3897 2.46967 19.5303C2.61032 19.671 2.80109 19.75 3 19.75H27C27.1989 19.75 27.3897 19.671 27.5303 19.5303C27.671 19.3897 27.75 19.1989 27.75 19C27.75 18.8011 27.671 18.6103 27.5303 18.4697C27.3897 18.329 27.1989 18.25 27 18.25H24.75V9.75H28C28.1633 9.74988 28.322 9.6965 28.4522 9.59795C28.5823 9.49941 28.6768 9.36108 28.7212 9.20399C28.7656 9.04689 28.7575 8.87959 28.6982 8.7275C28.6389 8.5754 28.5315 8.44681 28.3925 8.36125L15.3925 0.361255C15.2744 0.288739 15.1386 0.250351 15 0.250351C14.8614 0.250351 14.7256 0.288739 14.6075 0.361255L1.6075 8.36125C1.46846 8.44681 1.36114 8.5754 1.30182 8.7275C1.2425 8.87959 1.23443 9.04689 1.27883 9.20399C1.32323 9.36108 1.41768 9.49941 1.54784 9.59795C1.67799 9.6965 1.83675 9.74988 2 9.75ZM6.75 9.75H11.25V18.25H6.75V9.75ZM17.25 9.75V18.25H12.75V9.75H17.25ZM23.25 18.25H18.75V9.75H23.25V18.25ZM15 1.87501L25.35 8.25H4.65L15 1.87501ZM29.75 23C29.75 23.1989 29.671 23.3897 29.5303 23.5303C29.3897 23.671 29.1989 23.75 29 23.75H1C0.801088 23.75 0.610322 23.671 0.46967 23.5303C0.329018 23.3897 0.25 23.1989 0.25 23C0.25 22.8011 0.329018 22.6103 0.46967 22.4697C0.610322 22.329 0.801088 22.25 1 22.25H29C29.1989 22.25 29.3897 22.329 29.5303 22.4697C29.671 22.6103 29.75 22.8011 29.75 23Z" fill="#F5B102"/>
</svg>
